<svg id="Lager_1" data-name="Lager 1" xmlns="http://www.w3.org/2000/svg" viewBox="0 0 9767.38 1629.8"><defs><style>.cls-1{font-size:547.06px;font-family:AkiraExpanded-SuperBold, Akira Expanded;font-weight:700;}.cls-2{letter-spacing:0.07em;}.cls-3{letter-spacing:0.06em;}.cls-4{letter-spacing:0.02em;}.cls-5{letter-spacing:0.07em;}.cls-6{letter-spacing:0.12em;}.cls-7{letter-spacing:0.13em;}.cls-8{letter-spacing:0.06em;}.cls-9{letter-spacing:0.06em;}.cls-10{letter-spacing:0.04em;}.cls-11{letter-spacing:0.06em;}.cls-12{letter-spacing:0.03em;}.cls-13{fill:#0c0c0c;stroke-width:0.68px;}.cls-13,.cls-14,.cls-15,.cls-16,.cls-17,.cls-18,.cls-19,.cls-20,.cls-23{stroke:#000;}.cls-13,.cls-14,.cls-15,.cls-16,.cls-17,.cls-18,.cls-19{stroke-miterlimit:10;}.cls-14{fill:red;stroke-width:4.49px;}.cls-15,.cls-16,.cls-17,.cls-18,.cls-19,.cls-20,.cls-21,.cls-22,.cls-23{fill:none;}.cls-15{stroke-width:5.21px;}.cls-16{stroke-width:15.65px;}.cls-17{stroke-width:12.18px;}.cls-18{stroke-width:7.06px;}.cls-19{stroke-width:9.62px;}.cls-20,.cls-21,.cls-22,.cls-23{stroke-linecap:round;stroke-linejoin:round;}.cls-20{stroke-width:83.58px;}.cls-21,.cls-22{stroke:#b2b2b2;}.cls-21{stroke-width:15.2px;}.cls-22{stroke-width:7.6px;}.cls-23{stroke-width:30.39px;}</style></defs><text class="cls-1" transform="translate(32.69 619.37)"><tspan class="cls-2">N</tspan><tspan class="cls-3" x="540.12" y="0">O</tspan><tspan class="cls-4" x="1071.69" y="0">R</tspan><tspan class="cls-5" x="1576.28" y="0">T</tspan><tspan x="2095.83" y="0">H </tspan><tspan class="cls-6" x="2864.07" y="0">E</tspan><tspan class="cls-7" x="3358.51" y="0">N</tspan><tspan x="3930.42" y="0">D </tspan><tspan class="cls-8" x="4698.66" y="0">R</tspan><tspan class="cls-9" x="5223.55" y="0">E</tspan><tspan class="cls-10" x="5684.87" y="0">C</tspan><tspan class="cls-11" x="6208.96" y="0">O</tspan><tspan class="cls-8" x="6740.53" y="0">R</tspan><tspan class="cls-12" x="7265.43" y="0">D</tspan><tspan x="7785.51" y="0">S</tspan></text><path id="outer" class="cls-13" d="M6574.34,338.14c-140.79,0-254.93,114.14-254.93,254.91S6433.55,848,6574.34,848s254.91-114.13,254.91-254.93S6715.11,338.14,6574.34,338.14Zm0,262.57a9,9,0,1,1,9-9A9,9,0,0,1,6574.34,600.71Z" transform="translate(-74.9 -151.99)"/><path id="inner" class="cls-14" d="M6574.33,528.73a64.9,64.9,0,1,0,64.9,64.89A64.9,64.9,0,0,0,6574.33,528.73Zm0,73.37a9,9,0,1,1,9-9A9,9,0,0,1,6574.33,602.1Z" transform="translate(-74.9 -151.99)"/><text id="Text" x="-74.9" y="-151.99"/><circle class="cls-15" cx="6499.44" cy="441.08" r="75.29"/><circle class="cls-16" cx="6499.44" cy="441.08" r="226.21"/><circle class="cls-17" cx="6499.44" cy="441.08" r="176.04"/><circle class="cls-18" cx="6499.44" cy="441.08" r="102.07"/><circle class="cls-19" cx="6499.44" cy="441.08" r="138.97"/><line class="cls-20" x1="41.79" y1="41.79" x2="6719.59" y2="41.79"/><path class="cls-21" d="M6819.07,379.3V511.21s19.84,50.66-44.32,123.68" transform="translate(-74.9 -151.99)"/><polygon class="cls-22" points="6686.49 521.38 6673.18 527.23 6665.71 521.06 6667.01 507.75 6690.39 476.57 6708.57 489.89 6707.46 491.35 6714.58 496.34 6710.62 502.12 6703.49 497.14 6686.49 521.38"/><line class="cls-23" x1="6745.44" y1="51.5" x2="6745.44" y2="222.46"/></svg>